<svg width="54" height="48" viewBox="0 0 60 54" fill="none" xmlns="http://www.w3.org/2000/svg" class="icon">
<g clip-path="url(#clip0_13_45)">
<path d="M22.5 27C30.7725 27 37.5 20.9452 37.5 13.5C37.5 6.05475 30.7725 0 22.5 0C14.2275 0 7.5 6.05475 7.5 13.5C7.5 20.9452 14.2275 27 22.5 27ZM22.5 4.5C28.015 4.5 32.5 8.5365 32.5 13.5C32.5 18.4635 28.015 22.5 22.5 22.5C16.985 22.5 12.5 18.4635 12.5 13.5C12.5 8.5365 16.985 4.5 22.5 4.5ZM57.805 26.7277C54.97 24.1762 50.03 24.1762 47.1975 26.7277L27.5 44.4533V54H38.1075L57.8025 36.2745C59.22 34.9987 60 33.3045 60 31.5C60 29.6955 59.22 28.0012 57.805 26.7277ZM54.2675 33.0907L36.0375 49.5H32.5V46.3162L50.7325 29.9093C51.675 29.0588 53.3225 29.0588 54.2675 29.9093C54.74 30.3323 55 30.897 55 31.5C55 32.103 54.74 32.6655 54.2675 33.0907ZM29.8225 36H12.5C8.365 36 5 39.0285 5 42.75V54H0V42.75C0 36.5467 5.6075 31.5 12.5 31.5H32.5C33.2225 31.5 33.92 31.5855 34.61 31.6912L29.8225 36Z" fill="#94B2EC"/>
</g>

</svg>
