<svg width="40" height="40" viewBox="0 0 50 50" fill="none" xmlns="http://www.w3.org/2000/svg">
<path d="M50 8.33333H37.5V4.16667C37.5 3.0616 36.9732 2.00179 36.0355 1.22039C35.0979 0.438987 33.8261 0 32.5 0L17.5 0C16.1739 0 14.9021 0.438987 13.9645 1.22039C13.0268 2.00179 12.5 3.0616 12.5 4.16667V8.33333H0V12.5H5V43.75C5 45.4076 5.79018 46.9973 7.1967 48.1694C8.60322 49.3415 10.5109 50 12.5 50H37.5C39.4891 50 41.3968 49.3415 42.8033 48.1694C44.2098 46.9973 45 45.4076 45 43.75V12.5H50V8.33333ZM17.5 4.16667H32.5V8.33333H17.5V4.16667ZM40 43.75C40 44.3025 39.7366 44.8324 39.2678 45.2231C38.7989 45.6138 38.163 45.8333 37.5 45.8333H12.5C11.837 45.8333 11.2011 45.6138 10.7322 45.2231C10.2634 44.8324 10 44.3025 10 43.75V12.5H40V43.75Z" fill="#2E4B83"/>
<path d="M21.9512 20.4082H17.0732V37.7551H21.9512V20.4082Z" fill="#2E4B83"/>
<path d="M32.9268 20.4082H28.0488V37.7551H32.9268V20.4082Z" fill="#2E4B83"/>
</svg>
