<svg width="48" height="48" viewBox="0 0 54 54" fill="none" xmlns="http://www.w3.org/2000/svg">
<path d="M30.0105 1.16948C29.1842 0.416594 28.1118 0 27 0C25.8882 0 24.8158 0.416594 23.9895 1.16948L0 23.025V46.7118C0 48.6447 0.758569 50.4985 2.10883 51.8653C3.45909 53.2321 5.29044 54 7.2 54H46.8C48.7096 54 50.5409 53.2321 51.8912 51.8653C53.2414 50.4985 54 48.6447 54 46.7118V23.025L30.0105 1.16948ZM33.75 49.438H20.25V37.991C20.25 36.1788 20.9612 34.4409 22.227 33.1595C23.4929 31.8781 25.2098 31.1582 27 31.1582C28.7902 31.1582 30.5071 31.8781 31.773 33.1595C33.0388 34.4409 33.75 36.1788 33.75 37.991V49.438ZM49.5 46.7049C49.5 47.4298 49.2155 48.125 48.7092 48.6375C48.2028 49.1501 47.5161 49.438 46.8 49.438H38.25V37.991C38.25 34.9707 37.0647 32.0742 34.955 29.9385C32.8452 27.8029 29.9837 26.6031 27 26.6031C24.0163 26.6031 21.1548 27.8029 19.045 29.9385C16.9353 32.0742 15.75 34.9707 15.75 37.991V49.438H7.2C6.48392 49.438 5.79716 49.1501 5.29081 48.6375C4.78446 48.125 4.5 47.4298 4.5 46.7049V25.0521L27 4.55395L49.5 25.0521V46.7049Z" fill="#94B2EC"/>
</svg>
