<svg width="58" height="48" viewBox="0 0 67 54" fill="none" xmlns="http://www.w3.org/2000/svg">
<path d="M67 3H19.5417V9H67V3Z" fill="#94B2EC"/>
<path d="M67 24H19.5417V30H67V24Z" fill="#94B2EC"/>
<path d="M67 45H19.5417V51H67V45Z" fill="#94B2EC"/>
<path d="M5.58333 12C8.66692 12 11.1667 9.31371 11.1667 6C11.1667 2.68629 8.66692 0 5.58333 0C2.49974 0 0 2.68629 0 6C0 9.31371 2.49974 12 5.58333 12Z" fill="#94B2EC"/>
<path d="M5.58333 33C8.66692 33 11.1667 30.3137 11.1667 27C11.1667 23.6863 8.66692 21 5.58333 21C2.49974 21 0 23.6863 0 27C0 30.3137 2.49974 33 5.58333 33Z" fill="#94B2EC"/>
<path d="M5.58333 54C8.66692 54 11.1667 51.3137 11.1667 48C11.1667 44.6863 8.66692 42 5.58333 42C2.49974 42 0 44.6863 0 48C0 51.3137 2.49974 54 5.58333 54Z" fill="#94B2EC"/>
</svg>
