<svg width="30" height="30" viewBox="0 0 30 30" fill="none" xmlns="http://www.w3.org/2000/svg">
<path d="M17.7501 20.3261C14.1106 18.7851 11.2165 15.8842 9.68392 12.2411L13.9339 7.98368L6.10894 0.152499L2.14523 4.11496C1.45773 4.80639 0.914171 5.62727 0.545989 6.53013C0.177807 7.43299 -0.0076852 8.3999 0.000243875 9.37491C0.000243875 18.4348 11.5651 29.9997 20.6251 29.9997C21.6 30.0082 22.5669 29.823 23.4696 29.4548C24.3724 29.0866 25.193 28.5427 25.8838 27.8547L29.8475 23.891L22.0163 16.0598L17.7501 20.3261ZM24.115 26.0873C23.656 26.5423 23.1111 26.9015 22.5119 27.144C21.9128 27.3865 21.2714 27.5074 20.6251 27.4997C12.8339 27.4997 2.50022 17.1661 2.50022 9.37491C2.49286 8.72846 2.61393 8.08698 2.8564 7.48767C3.09886 6.88837 3.45791 6.34317 3.91271 5.88369L6.10894 3.68747L10.4052 7.98368L6.73644 11.6524L7.04269 12.4199C7.94424 14.8315 9.35362 17.0212 11.1753 18.8405C12.9971 20.6599 15.1886 22.0664 17.6014 22.9648L18.3588 23.2535L22.0163 19.5948L26.3125 23.891L24.115 26.0873ZM17.5001 2.49998V0C20.8142 0.00363946 23.9914 1.32176 26.3348 3.66515C28.6782 6.00855 29.9964 9.18582 30 12.4999H27.5C27.497 9.84866 26.4425 7.30687 24.5678 5.43217C22.6931 3.55747 20.1513 2.50295 17.5001 2.49998ZM17.5001 7.49993V4.99995C19.4886 5.00194 21.3951 5.79275 22.8012 7.19882C24.2072 8.6049 24.9981 10.5114 25 12.4999H22.5001C22.5001 11.1738 21.9733 9.90206 21.0356 8.96438C20.0979 8.02671 18.8262 7.49993 17.5001 7.49993Z" fill="#2E4B83"/>
</svg>
